<svg preserveAspectRatio="none" overflow="visible" style="display: block;" width="23.4546" height="24" viewBox="0 0 23.4546 24" fill="none" xmlns="http://www.w3.org/2000/svg">
<g id="Clip path group">
<mask id="mask0_0_66" style="mask-type:luminance" maskUnits="userSpaceOnUse" x="0" y="0" width="24" height="24">
<g id="B">
<path id="Vector" d="M23.1818 9.81819H12V14.4546H18.4364C17.8364 17.4 15.3273 19.0909 12 19.0909C8.07273 19.0909 4.90909 15.9273 4.90909 12C4.90909 8.07273 8.07273 4.90909 12 4.90909C13.6909 4.90909 15.2182 5.50909 16.4182 6.49091L19.9091 3C17.7818 1.14545 15.0546 0 12 0C5.34546 0 0 5.34546 0 12C0 18.6546 5.34546 24 12 24C18 24 23.4546 19.6364 23.4546 12C23.4546 11.2909 23.3455 10.5273 23.1818 9.81819Z" fill="white"/>
</g>
</mask>
<g mask="url(#mask0_0_66)">
<path id="Vector_2" d="M-1.09091 19.0909L15.2727 6.54546L19.5818 7.09091L25.0909 -1.09091V25.0909H-1.09091V19.0909Z" fill="#34A853"/>
</g>
</g>
</svg>
